<mxfile host="app.diagrams.net" agent="Mozilla/5.0 (X11; Linux x86_64) AppleWebKit/537.36 (KHTML, like Gecko) Chrome/129.0.0.0 Safari/537.36" version="24.7.17">
  <diagram name="Page-1" id="EKxQWD3cZe1Im6JRCw3D">
    <mxGraphModel dx="1631" dy="927" grid="1" gridSize="10" guides="1" tooltips="1" connect="1" arrows="1" fold="1" page="1" pageScale="1" pageWidth="850" pageHeight="1100" math="0" shadow="0">
      <root>
        <mxCell id="0" />
        <mxCell id="1" parent="0" />
        <mxCell id="aKZUWa9DuiTcALbEIfim-1" value="S3 Bucket" style="sketch=0;outlineConnect=0;fontColor=#232F3E;gradientColor=none;fillColor=#7AA116;strokeColor=none;dashed=0;verticalLabelPosition=bottom;verticalAlign=top;align=center;html=1;fontSize=12;fontStyle=0;aspect=fixed;pointerEvents=1;shape=mxgraph.aws4.bucket_with_objects;" vertex="1" parent="1">
          <mxGeometry x="370" y="511" width="75" height="78" as="geometry" />
        </mxCell>
        <mxCell id="aKZUWa9DuiTcALbEIfim-2" value="Regional Node (EC2)" style="points=[[0,0],[0.25,0],[0.5,0],[0.75,0],[1,0],[1,0.25],[1,0.5],[1,0.75],[1,1],[0.75,1],[0.5,1],[0.25,1],[0,1],[0,0.75],[0,0.5],[0,0.25]];outlineConnect=0;gradientColor=none;html=1;whiteSpace=wrap;fontSize=12;fontStyle=0;container=1;pointerEvents=0;collapsible=0;recursiveResize=0;shape=mxgraph.aws4.group;grIcon=mxgraph.aws4.group_ec2_instance_contents;strokeColor=#D86613;fillColor=none;verticalAlign=top;align=left;spacingLeft=30;fontColor=#D86613;dashed=0;" vertex="1" parent="1">
          <mxGeometry x="480" y="220" width="225" height="220" as="geometry" />
        </mxCell>
        <mxCell id="aKZUWa9DuiTcALbEIfim-6" value="" style="shape=image;html=1;verticalAlign=top;verticalLabelPosition=bottom;labelBackgroundColor=#ffffff;imageAspect=0;aspect=fixed;image=https://cdn1.iconfinder.com/data/icons/unicons-line-vol-3/24/docker-128.png" vertex="1" parent="aKZUWa9DuiTcALbEIfim-2">
          <mxGeometry x="15" y="40" width="50" height="50" as="geometry" />
        </mxCell>
        <mxCell id="aKZUWa9DuiTcALbEIfim-8" value="" style="shape=image;html=1;verticalAlign=top;verticalLabelPosition=bottom;labelBackgroundColor=#ffffff;imageAspect=0;aspect=fixed;image=https://cdn1.iconfinder.com/data/icons/unicons-line-vol-3/24/docker-128.png" vertex="1" parent="aKZUWa9DuiTcALbEIfim-2">
          <mxGeometry x="85" y="40" width="50" height="50" as="geometry" />
        </mxCell>
        <mxCell id="aKZUWa9DuiTcALbEIfim-10" value="" style="shape=image;html=1;verticalAlign=top;verticalLabelPosition=bottom;labelBackgroundColor=#ffffff;imageAspect=0;aspect=fixed;image=https://cdn1.iconfinder.com/data/icons/unicons-line-vol-3/24/docker-128.png" vertex="1" parent="aKZUWa9DuiTcALbEIfim-2">
          <mxGeometry x="155" y="40" width="50" height="50" as="geometry" />
        </mxCell>
        <mxCell id="aKZUWa9DuiTcALbEIfim-11" value="" style="shape=image;html=1;verticalAlign=top;verticalLabelPosition=bottom;labelBackgroundColor=#ffffff;imageAspect=0;aspect=fixed;image=https://cdn1.iconfinder.com/data/icons/unicons-line-vol-3/24/docker-128.png" vertex="1" parent="aKZUWa9DuiTcALbEIfim-2">
          <mxGeometry x="15" y="100" width="50" height="50" as="geometry" />
        </mxCell>
        <mxCell id="aKZUWa9DuiTcALbEIfim-12" value="" style="shape=image;html=1;verticalAlign=top;verticalLabelPosition=bottom;labelBackgroundColor=#ffffff;imageAspect=0;aspect=fixed;image=https://cdn1.iconfinder.com/data/icons/unicons-line-vol-3/24/docker-128.png" vertex="1" parent="aKZUWa9DuiTcALbEIfim-2">
          <mxGeometry x="85" y="100" width="50" height="50" as="geometry" />
        </mxCell>
        <mxCell id="aKZUWa9DuiTcALbEIfim-13" value="" style="shape=image;html=1;verticalAlign=top;verticalLabelPosition=bottom;labelBackgroundColor=#ffffff;imageAspect=0;aspect=fixed;image=https://cdn1.iconfinder.com/data/icons/unicons-line-vol-3/24/docker-128.png" vertex="1" parent="aKZUWa9DuiTcALbEIfim-2">
          <mxGeometry x="155" y="100" width="50" height="50" as="geometry" />
        </mxCell>
        <mxCell id="aKZUWa9DuiTcALbEIfim-14" value="" style="shape=image;html=1;verticalAlign=top;verticalLabelPosition=bottom;labelBackgroundColor=#ffffff;imageAspect=0;aspect=fixed;image=https://cdn1.iconfinder.com/data/icons/unicons-line-vol-3/24/docker-128.png" vertex="1" parent="aKZUWa9DuiTcALbEIfim-2">
          <mxGeometry x="15" y="160" width="50" height="50" as="geometry" />
        </mxCell>
        <mxCell id="aKZUWa9DuiTcALbEIfim-15" value="" style="shape=image;html=1;verticalAlign=top;verticalLabelPosition=bottom;labelBackgroundColor=#ffffff;imageAspect=0;aspect=fixed;image=https://cdn1.iconfinder.com/data/icons/unicons-line-vol-3/24/docker-128.png" vertex="1" parent="aKZUWa9DuiTcALbEIfim-2">
          <mxGeometry x="85" y="160" width="50" height="50" as="geometry" />
        </mxCell>
        <mxCell id="aKZUWa9DuiTcALbEIfim-16" value="" style="shape=image;html=1;verticalAlign=top;verticalLabelPosition=bottom;labelBackgroundColor=#ffffff;imageAspect=0;aspect=fixed;image=https://cdn1.iconfinder.com/data/icons/unicons-line-vol-3/24/docker-128.png" vertex="1" parent="aKZUWa9DuiTcALbEIfim-2">
          <mxGeometry x="155" y="160" width="50" height="50" as="geometry" />
        </mxCell>
        <mxCell id="aKZUWa9DuiTcALbEIfim-17" value="Regional Node (EC2)" style="points=[[0,0],[0.25,0],[0.5,0],[0.75,0],[1,0],[1,0.25],[1,0.5],[1,0.75],[1,1],[0.75,1],[0.5,1],[0.25,1],[0,1],[0,0.75],[0,0.5],[0,0.25]];outlineConnect=0;gradientColor=none;html=1;whiteSpace=wrap;fontSize=12;fontStyle=0;container=1;pointerEvents=0;collapsible=0;recursiveResize=0;shape=mxgraph.aws4.group;grIcon=mxgraph.aws4.group_ec2_instance_contents;strokeColor=#D86613;fillColor=none;verticalAlign=top;align=left;spacingLeft=30;fontColor=#D86613;dashed=0;" vertex="1" parent="1">
          <mxGeometry x="110" y="220" width="225" height="220" as="geometry" />
        </mxCell>
        <mxCell id="aKZUWa9DuiTcALbEIfim-18" value="" style="shape=image;html=1;verticalAlign=top;verticalLabelPosition=bottom;labelBackgroundColor=#ffffff;imageAspect=0;aspect=fixed;image=https://cdn1.iconfinder.com/data/icons/unicons-line-vol-3/24/docker-128.png" vertex="1" parent="aKZUWa9DuiTcALbEIfim-17">
          <mxGeometry x="15" y="40" width="50" height="50" as="geometry" />
        </mxCell>
        <mxCell id="aKZUWa9DuiTcALbEIfim-19" value="" style="shape=image;html=1;verticalAlign=top;verticalLabelPosition=bottom;labelBackgroundColor=#ffffff;imageAspect=0;aspect=fixed;image=https://cdn1.iconfinder.com/data/icons/unicons-line-vol-3/24/docker-128.png" vertex="1" parent="aKZUWa9DuiTcALbEIfim-17">
          <mxGeometry x="85" y="40" width="50" height="50" as="geometry" />
        </mxCell>
        <mxCell id="aKZUWa9DuiTcALbEIfim-20" value="" style="shape=image;html=1;verticalAlign=top;verticalLabelPosition=bottom;labelBackgroundColor=#ffffff;imageAspect=0;aspect=fixed;image=https://cdn1.iconfinder.com/data/icons/unicons-line-vol-3/24/docker-128.png" vertex="1" parent="aKZUWa9DuiTcALbEIfim-17">
          <mxGeometry x="155" y="40" width="50" height="50" as="geometry" />
        </mxCell>
        <mxCell id="aKZUWa9DuiTcALbEIfim-21" value="" style="shape=image;html=1;verticalAlign=top;verticalLabelPosition=bottom;labelBackgroundColor=#ffffff;imageAspect=0;aspect=fixed;image=https://cdn1.iconfinder.com/data/icons/unicons-line-vol-3/24/docker-128.png" vertex="1" parent="aKZUWa9DuiTcALbEIfim-17">
          <mxGeometry x="15" y="100" width="50" height="50" as="geometry" />
        </mxCell>
        <mxCell id="aKZUWa9DuiTcALbEIfim-22" value="" style="shape=image;html=1;verticalAlign=top;verticalLabelPosition=bottom;labelBackgroundColor=#ffffff;imageAspect=0;aspect=fixed;image=https://cdn1.iconfinder.com/data/icons/unicons-line-vol-3/24/docker-128.png" vertex="1" parent="aKZUWa9DuiTcALbEIfim-17">
          <mxGeometry x="85" y="100" width="50" height="50" as="geometry" />
        </mxCell>
        <mxCell id="aKZUWa9DuiTcALbEIfim-23" value="" style="shape=image;html=1;verticalAlign=top;verticalLabelPosition=bottom;labelBackgroundColor=#ffffff;imageAspect=0;aspect=fixed;image=https://cdn1.iconfinder.com/data/icons/unicons-line-vol-3/24/docker-128.png" vertex="1" parent="aKZUWa9DuiTcALbEIfim-17">
          <mxGeometry x="155" y="100" width="50" height="50" as="geometry" />
        </mxCell>
        <mxCell id="aKZUWa9DuiTcALbEIfim-24" value="" style="shape=image;html=1;verticalAlign=top;verticalLabelPosition=bottom;labelBackgroundColor=#ffffff;imageAspect=0;aspect=fixed;image=https://cdn1.iconfinder.com/data/icons/unicons-line-vol-3/24/docker-128.png" vertex="1" parent="aKZUWa9DuiTcALbEIfim-17">
          <mxGeometry x="15" y="160" width="50" height="50" as="geometry" />
        </mxCell>
        <mxCell id="aKZUWa9DuiTcALbEIfim-25" value="" style="shape=image;html=1;verticalAlign=top;verticalLabelPosition=bottom;labelBackgroundColor=#ffffff;imageAspect=0;aspect=fixed;image=https://cdn1.iconfinder.com/data/icons/unicons-line-vol-3/24/docker-128.png" vertex="1" parent="aKZUWa9DuiTcALbEIfim-17">
          <mxGeometry x="85" y="160" width="50" height="50" as="geometry" />
        </mxCell>
        <mxCell id="aKZUWa9DuiTcALbEIfim-26" value="" style="shape=image;html=1;verticalAlign=top;verticalLabelPosition=bottom;labelBackgroundColor=#ffffff;imageAspect=0;aspect=fixed;image=https://cdn1.iconfinder.com/data/icons/unicons-line-vol-3/24/docker-128.png" vertex="1" parent="aKZUWa9DuiTcALbEIfim-17">
          <mxGeometry x="155" y="160" width="50" height="50" as="geometry" />
        </mxCell>
        <mxCell id="aKZUWa9DuiTcALbEIfim-29" value="Regional Node (EC2)" style="points=[[0,0],[0.25,0],[0.5,0],[0.75,0],[1,0],[1,0.25],[1,0.5],[1,0.75],[1,1],[0.75,1],[0.5,1],[0.25,1],[0,1],[0,0.75],[0,0.5],[0,0.25]];outlineConnect=0;gradientColor=none;html=1;whiteSpace=wrap;fontSize=12;fontStyle=0;container=1;pointerEvents=0;collapsible=0;recursiveResize=0;shape=mxgraph.aws4.group;grIcon=mxgraph.aws4.group_ec2_instance_contents;strokeColor=#D86613;fillColor=none;verticalAlign=top;align=left;spacingLeft=30;fontColor=#D86613;dashed=0;" vertex="1" parent="1">
          <mxGeometry x="480" y="650" width="225" height="220" as="geometry" />
        </mxCell>
        <mxCell id="aKZUWa9DuiTcALbEIfim-30" value="" style="shape=image;html=1;verticalAlign=top;verticalLabelPosition=bottom;labelBackgroundColor=#ffffff;imageAspect=0;aspect=fixed;image=https://cdn1.iconfinder.com/data/icons/unicons-line-vol-3/24/docker-128.png" vertex="1" parent="aKZUWa9DuiTcALbEIfim-29">
          <mxGeometry x="15" y="40" width="50" height="50" as="geometry" />
        </mxCell>
        <mxCell id="aKZUWa9DuiTcALbEIfim-31" value="" style="shape=image;html=1;verticalAlign=top;verticalLabelPosition=bottom;labelBackgroundColor=#ffffff;imageAspect=0;aspect=fixed;image=https://cdn1.iconfinder.com/data/icons/unicons-line-vol-3/24/docker-128.png" vertex="1" parent="aKZUWa9DuiTcALbEIfim-29">
          <mxGeometry x="85" y="40" width="50" height="50" as="geometry" />
        </mxCell>
        <mxCell id="aKZUWa9DuiTcALbEIfim-32" value="" style="shape=image;html=1;verticalAlign=top;verticalLabelPosition=bottom;labelBackgroundColor=#ffffff;imageAspect=0;aspect=fixed;image=https://cdn1.iconfinder.com/data/icons/unicons-line-vol-3/24/docker-128.png" vertex="1" parent="aKZUWa9DuiTcALbEIfim-29">
          <mxGeometry x="155" y="40" width="50" height="50" as="geometry" />
        </mxCell>
        <mxCell id="aKZUWa9DuiTcALbEIfim-33" value="" style="shape=image;html=1;verticalAlign=top;verticalLabelPosition=bottom;labelBackgroundColor=#ffffff;imageAspect=0;aspect=fixed;image=https://cdn1.iconfinder.com/data/icons/unicons-line-vol-3/24/docker-128.png" vertex="1" parent="aKZUWa9DuiTcALbEIfim-29">
          <mxGeometry x="15" y="100" width="50" height="50" as="geometry" />
        </mxCell>
        <mxCell id="aKZUWa9DuiTcALbEIfim-34" value="" style="shape=image;html=1;verticalAlign=top;verticalLabelPosition=bottom;labelBackgroundColor=#ffffff;imageAspect=0;aspect=fixed;image=https://cdn1.iconfinder.com/data/icons/unicons-line-vol-3/24/docker-128.png" vertex="1" parent="aKZUWa9DuiTcALbEIfim-29">
          <mxGeometry x="85" y="100" width="50" height="50" as="geometry" />
        </mxCell>
        <mxCell id="aKZUWa9DuiTcALbEIfim-35" value="" style="shape=image;html=1;verticalAlign=top;verticalLabelPosition=bottom;labelBackgroundColor=#ffffff;imageAspect=0;aspect=fixed;image=https://cdn1.iconfinder.com/data/icons/unicons-line-vol-3/24/docker-128.png" vertex="1" parent="aKZUWa9DuiTcALbEIfim-29">
          <mxGeometry x="155" y="100" width="50" height="50" as="geometry" />
        </mxCell>
        <mxCell id="aKZUWa9DuiTcALbEIfim-36" value="" style="shape=image;html=1;verticalAlign=top;verticalLabelPosition=bottom;labelBackgroundColor=#ffffff;imageAspect=0;aspect=fixed;image=https://cdn1.iconfinder.com/data/icons/unicons-line-vol-3/24/docker-128.png" vertex="1" parent="aKZUWa9DuiTcALbEIfim-29">
          <mxGeometry x="15" y="160" width="50" height="50" as="geometry" />
        </mxCell>
        <mxCell id="aKZUWa9DuiTcALbEIfim-37" value="" style="shape=image;html=1;verticalAlign=top;verticalLabelPosition=bottom;labelBackgroundColor=#ffffff;imageAspect=0;aspect=fixed;image=https://cdn1.iconfinder.com/data/icons/unicons-line-vol-3/24/docker-128.png" vertex="1" parent="aKZUWa9DuiTcALbEIfim-29">
          <mxGeometry x="85" y="160" width="50" height="50" as="geometry" />
        </mxCell>
        <mxCell id="aKZUWa9DuiTcALbEIfim-38" value="" style="shape=image;html=1;verticalAlign=top;verticalLabelPosition=bottom;labelBackgroundColor=#ffffff;imageAspect=0;aspect=fixed;image=https://cdn1.iconfinder.com/data/icons/unicons-line-vol-3/24/docker-128.png" vertex="1" parent="aKZUWa9DuiTcALbEIfim-29">
          <mxGeometry x="155" y="160" width="50" height="50" as="geometry" />
        </mxCell>
        <mxCell id="aKZUWa9DuiTcALbEIfim-39" value="Regional Node (EC2)" style="points=[[0,0],[0.25,0],[0.5,0],[0.75,0],[1,0],[1,0.25],[1,0.5],[1,0.75],[1,1],[0.75,1],[0.5,1],[0.25,1],[0,1],[0,0.75],[0,0.5],[0,0.25]];outlineConnect=0;gradientColor=none;html=1;whiteSpace=wrap;fontSize=12;fontStyle=0;container=1;pointerEvents=0;collapsible=0;recursiveResize=0;shape=mxgraph.aws4.group;grIcon=mxgraph.aws4.group_ec2_instance_contents;strokeColor=#D86613;fillColor=none;verticalAlign=top;align=left;spacingLeft=30;fontColor=#D86613;dashed=0;" vertex="1" parent="1">
          <mxGeometry x="110" y="650" width="225" height="220" as="geometry" />
        </mxCell>
        <mxCell id="aKZUWa9DuiTcALbEIfim-40" value="" style="shape=image;html=1;verticalAlign=top;verticalLabelPosition=bottom;labelBackgroundColor=#ffffff;imageAspect=0;aspect=fixed;image=https://cdn1.iconfinder.com/data/icons/unicons-line-vol-3/24/docker-128.png" vertex="1" parent="aKZUWa9DuiTcALbEIfim-39">
          <mxGeometry x="15" y="40" width="50" height="50" as="geometry" />
        </mxCell>
        <mxCell id="aKZUWa9DuiTcALbEIfim-41" value="" style="shape=image;html=1;verticalAlign=top;verticalLabelPosition=bottom;labelBackgroundColor=#ffffff;imageAspect=0;aspect=fixed;image=https://cdn1.iconfinder.com/data/icons/unicons-line-vol-3/24/docker-128.png" vertex="1" parent="aKZUWa9DuiTcALbEIfim-39">
          <mxGeometry x="85" y="40" width="50" height="50" as="geometry" />
        </mxCell>
        <mxCell id="aKZUWa9DuiTcALbEIfim-42" value="" style="shape=image;html=1;verticalAlign=top;verticalLabelPosition=bottom;labelBackgroundColor=#ffffff;imageAspect=0;aspect=fixed;image=https://cdn1.iconfinder.com/data/icons/unicons-line-vol-3/24/docker-128.png" vertex="1" parent="aKZUWa9DuiTcALbEIfim-39">
          <mxGeometry x="155" y="40" width="50" height="50" as="geometry" />
        </mxCell>
        <mxCell id="aKZUWa9DuiTcALbEIfim-43" value="" style="shape=image;html=1;verticalAlign=top;verticalLabelPosition=bottom;labelBackgroundColor=#ffffff;imageAspect=0;aspect=fixed;image=https://cdn1.iconfinder.com/data/icons/unicons-line-vol-3/24/docker-128.png" vertex="1" parent="aKZUWa9DuiTcALbEIfim-39">
          <mxGeometry x="15" y="100" width="50" height="50" as="geometry" />
        </mxCell>
        <mxCell id="aKZUWa9DuiTcALbEIfim-44" value="" style="shape=image;html=1;verticalAlign=top;verticalLabelPosition=bottom;labelBackgroundColor=#ffffff;imageAspect=0;aspect=fixed;image=https://cdn1.iconfinder.com/data/icons/unicons-line-vol-3/24/docker-128.png" vertex="1" parent="aKZUWa9DuiTcALbEIfim-39">
          <mxGeometry x="85" y="100" width="50" height="50" as="geometry" />
        </mxCell>
        <mxCell id="aKZUWa9DuiTcALbEIfim-45" value="" style="shape=image;html=1;verticalAlign=top;verticalLabelPosition=bottom;labelBackgroundColor=#ffffff;imageAspect=0;aspect=fixed;image=https://cdn1.iconfinder.com/data/icons/unicons-line-vol-3/24/docker-128.png" vertex="1" parent="aKZUWa9DuiTcALbEIfim-39">
          <mxGeometry x="155" y="100" width="50" height="50" as="geometry" />
        </mxCell>
        <mxCell id="aKZUWa9DuiTcALbEIfim-46" value="" style="shape=image;html=1;verticalAlign=top;verticalLabelPosition=bottom;labelBackgroundColor=#ffffff;imageAspect=0;aspect=fixed;image=https://cdn1.iconfinder.com/data/icons/unicons-line-vol-3/24/docker-128.png" vertex="1" parent="aKZUWa9DuiTcALbEIfim-39">
          <mxGeometry x="15" y="160" width="50" height="50" as="geometry" />
        </mxCell>
        <mxCell id="aKZUWa9DuiTcALbEIfim-47" value="" style="shape=image;html=1;verticalAlign=top;verticalLabelPosition=bottom;labelBackgroundColor=#ffffff;imageAspect=0;aspect=fixed;image=https://cdn1.iconfinder.com/data/icons/unicons-line-vol-3/24/docker-128.png" vertex="1" parent="aKZUWa9DuiTcALbEIfim-39">
          <mxGeometry x="85" y="160" width="50" height="50" as="geometry" />
        </mxCell>
        <mxCell id="aKZUWa9DuiTcALbEIfim-48" value="" style="shape=image;html=1;verticalAlign=top;verticalLabelPosition=bottom;labelBackgroundColor=#ffffff;imageAspect=0;aspect=fixed;image=https://cdn1.iconfinder.com/data/icons/unicons-line-vol-3/24/docker-128.png" vertex="1" parent="aKZUWa9DuiTcALbEIfim-39">
          <mxGeometry x="155" y="160" width="50" height="50" as="geometry" />
        </mxCell>
        <mxCell id="aKZUWa9DuiTcALbEIfim-50" value="" style="endArrow=classic;html=1;rounded=0;exitX=0.5;exitY=1;exitDx=0;exitDy=0;" edge="1" parent="1" source="aKZUWa9DuiTcALbEIfim-17" target="aKZUWa9DuiTcALbEIfim-1">
          <mxGeometry width="50" height="50" relative="1" as="geometry">
            <mxPoint x="250" y="530" as="sourcePoint" />
            <mxPoint x="300" y="480" as="targetPoint" />
          </mxGeometry>
        </mxCell>
        <mxCell id="aKZUWa9DuiTcALbEIfim-51" value="" style="endArrow=classic;html=1;rounded=0;exitX=0.5;exitY=1;exitDx=0;exitDy=0;" edge="1" parent="1" source="aKZUWa9DuiTcALbEIfim-2" target="aKZUWa9DuiTcALbEIfim-1">
          <mxGeometry width="50" height="50" relative="1" as="geometry">
            <mxPoint x="510" y="570" as="sourcePoint" />
            <mxPoint x="560" y="520" as="targetPoint" />
          </mxGeometry>
        </mxCell>
        <mxCell id="aKZUWa9DuiTcALbEIfim-72" value="" style="endArrow=classic;html=1;rounded=0;exitX=0.5;exitY=0;exitDx=0;exitDy=0;" edge="1" parent="1" source="aKZUWa9DuiTcALbEIfim-39" target="aKZUWa9DuiTcALbEIfim-1">
          <mxGeometry width="50" height="50" relative="1" as="geometry">
            <mxPoint x="240" y="610" as="sourcePoint" />
            <mxPoint x="290" y="560" as="targetPoint" />
          </mxGeometry>
        </mxCell>
        <mxCell id="aKZUWa9DuiTcALbEIfim-73" value="" style="endArrow=classic;html=1;rounded=0;exitX=0.5;exitY=0;exitDx=0;exitDy=0;" edge="1" parent="1" source="aKZUWa9DuiTcALbEIfim-29" target="aKZUWa9DuiTcALbEIfim-1">
          <mxGeometry width="50" height="50" relative="1" as="geometry">
            <mxPoint x="610" y="590" as="sourcePoint" />
            <mxPoint x="660" y="540" as="targetPoint" />
          </mxGeometry>
        </mxCell>
      </root>
    </mxGraphModel>
  </diagram>
</mxfile>
